<svg xmlns:inkscape="http://www.inkscape.org/namespaces/inkscape" xmlns:sodipodi="http://sodipodi.sourceforge.net/DTD/sodipodi-0.dtd" xmlns="http://www.w3.org/2000/svg" xmlns:svg="http://www.w3.org/2000/svg" viewBox="0 0 6.3499948 7.937507625" version="1.1" xml:space="preserve" x="0px" y="0px"><g transform="translate(-7.1437536,-204.7875)"><path style="color:#000000;" d="m 7.9990271,205.31667 c -0.1762615,0 -0.3261101,0.13253 -0.3261101,0.30236 v 1.06268 c 0,0.16984 0.1498486,0.30082 0.3261101,0.30082 h 1.0139908 c 0.1762616,0 0.3261102,-0.13098 0.3261102,-0.30082 v -1.06268 c 0,-0.16983 -0.1498486,-0.30236 -0.3261102,-0.30236 z m 1.8129865,0 c -0.1762616,0 -0.3266269,0.13253 -0.3266269,0.30236 v 1.06268 c 0,0.16984 0.1503653,0.30082 0.3266269,0.30082 h 1.0134744 c 0.176261,0 0.32611,-0.13098 0.32611,-0.30082 v -1.06268 c 0,-0.16983 -0.149849,-0.30236 -0.32611,-0.30236 z m 1.8124704,0 c -0.176262,0 -0.326111,0.13253 -0.326111,0.30236 v 1.06268 c 0,0.16984 0.149849,0.30082 0.326111,0.30082 h 1.01399 c 0.176261,0 0.32611,-0.13098 0.32611,-0.30082 v -1.06268 c 0,-0.16983 -0.149849,-0.30236 -0.32611,-0.30236 z m -3.6254569,1.81265 c -0.1762615,0 -0.3261101,0.13304 -0.3261101,0.30288 v 1.06268 c 0,0.16984 0.1498486,0.30081 0.3261101,0.30081 h 1.0139908 c 0.1762616,0 0.3261102,-0.13097 0.3261102,-0.30081 v -1.06268 c 0,-0.16984 -0.1498486,-0.30288 -0.3261102,-0.30288 z m 1.8129865,0 c -0.1762616,0 -0.3266269,0.13304 -0.3266269,0.30288 v 1.06268 c 0,0.16984 0.1503653,0.30081 0.3266269,0.30081 h 1.0134744 c 0.176261,0 0.32611,-0.13097 0.32611,-0.30081 v -1.06268 c 0,-0.16984 -0.149849,-0.30288 -0.32611,-0.30288 z m 1.8124704,0 c -0.176262,0 -0.326111,0.13304 -0.326111,0.30288 v 1.06268 c 0,0.16984 0.149849,0.30081 0.326111,0.30081 h 1.01399 c 0.176261,0 0.32611,-0.13097 0.32611,-0.30081 v -1.06268 c 0,-0.16984 -0.149849,-0.30288 -0.32611,-0.30288 z m -3.6254569,1.81264 c -0.1762615,0 -0.3261101,0.13305 -0.3261101,0.30288 v 1.06268 c 0,0.16984 0.1498486,0.30082 0.3261101,0.30082 h 1.0139908 c 0.1762616,0 0.3261102,-0.13098 0.3261102,-0.30082 v -1.06268 c 0,-0.16983 -0.1498486,-0.30288 -0.3261102,-0.30288 z m 1.8129865,0 c -0.1762616,0 -0.3266269,0.13305 -0.3266269,0.30288 v 1.06268 c 0,0.16984 0.1503653,0.30082 0.3266269,0.30082 h 1.0134744 c 0.176261,0 0.32611,-0.13098 0.32611,-0.30082 v -1.06268 c 0,-0.16983 -0.149849,-0.30288 -0.32611,-0.30288 z m 1.8124704,0 c -0.176262,0 -0.326111,0.13305 -0.326111,0.30288 v 1.06268 c 0,0.16984 0.149849,0.30082 0.326111,0.30082 h 1.01399 c 0.176261,0 0.32611,-0.13098 0.32611,-0.30082 v -1.06268 c 0,-0.16983 -0.149849,-0.30288 -0.32611,-0.30288 z" fill="#007aff" fill-opacity="1" stroke-width="1" stroke-linecap="round" stroke-linejoin="round"/></g><text x="0" y="21.3500061" fill="#000000" font-size="5px" font-weight="bold" font-family="'Helvetica Neue', Helvetica, Arial-Unicode, Arial, Sans-serif">Created by Mol Media</text><text x="0" y="26.3500061" fill="#000000" font-size="5px" font-weight="bold" font-family="'Helvetica Neue', Helvetica, Arial-Unicode, Arial, Sans-serif">from the Noun Project</text></svg>
